<mxfile host="65bd71144e">
    <diagram id="tr8WCDj-hul7nBdrf4UF" name="Страница 1">
        <mxGraphModel dx="689" dy="649" grid="1" gridSize="10" guides="1" tooltips="1" connect="1" arrows="1" fold="1" page="1" pageScale="1" pageWidth="827" pageHeight="1169" math="0" shadow="0">
            <root>
                <mxCell id="0"/>
                <mxCell id="1" parent="0"/>
                <mxCell id="2" style="edgeStyle=orthogonalEdgeStyle;rounded=0;orthogonalLoop=1;jettySize=auto;html=1;" parent="1" source="3" target="4" edge="1">
                    <mxGeometry relative="1" as="geometry"/>
                </mxCell>
                <mxCell id="3" value="Запуск" style="rounded=1;whiteSpace=wrap;html=1;arcSize=50;" parent="1" vertex="1">
                    <mxGeometry x="305" y="20" width="140" height="40" as="geometry"/>
                </mxCell>
                <mxCell id="195" style="edgeStyle=none;html=1;" parent="1" source="4" edge="1">
                    <mxGeometry relative="1" as="geometry">
                        <mxPoint x="375" y="200" as="targetPoint"/>
                    </mxGeometry>
                </mxCell>
                <mxCell id="4" value="int n;" style="rounded=0;whiteSpace=wrap;html=1;" parent="1" vertex="1">
                    <mxGeometry x="315" y="120" width="120" height="50" as="geometry"/>
                </mxCell>
                <mxCell id="5" value="#include &amp;lt;iostream&amp;gt;&lt;br&gt;using namespace std;&lt;br&gt;int main() {" style="strokeWidth=2;html=1;shape=mxgraph.flowchart.annotation_2;align=left;labelPosition=right;pointerEvents=1;" parent="1" vertex="1">
                    <mxGeometry x="455" y="50" width="20" height="60" as="geometry"/>
                </mxCell>
                <mxCell id="6" value="" style="endArrow=none;dashed=1;html=1;entryX=0;entryY=0.5;entryDx=0;entryDy=0;entryPerimeter=0;" parent="1" target="5" edge="1">
                    <mxGeometry width="50" height="50" relative="1" as="geometry">
                        <mxPoint x="375" y="80" as="sourcePoint"/>
                        <mxPoint x="465" y="70" as="targetPoint"/>
                    </mxGeometry>
                </mxCell>
                <mxCell id="7" value="Конец" style="rounded=1;whiteSpace=wrap;html=1;arcSize=50;" parent="1" vertex="1">
                    <mxGeometry x="305" y="1170" width="140" height="40" as="geometry"/>
                </mxCell>
                <mxCell id="10" value="return 0;&lt;br&gt;}" style="strokeWidth=2;html=1;shape=mxgraph.flowchart.annotation_2;align=left;labelPosition=right;pointerEvents=1;" parent="1" vertex="1">
                    <mxGeometry x="470" y="1131" width="20" height="60" as="geometry"/>
                </mxCell>
                <mxCell id="11" value="" style="endArrow=none;dashed=1;html=1;entryX=0;entryY=0.5;entryDx=0;entryDy=0;entryPerimeter=0;" parent="1" edge="1">
                    <mxGeometry width="50" height="50" relative="1" as="geometry">
                        <mxPoint x="370" y="1161" as="sourcePoint"/>
                        <mxPoint x="470" y="1161" as="targetPoint"/>
                    </mxGeometry>
                </mxCell>
                <mxCell id="179" style="edgeStyle=orthogonalEdgeStyle;rounded=0;html=1;entryX=0.5;entryY=0;entryDx=0;entryDy=0;" parent="1" target="7" edge="1">
                    <mxGeometry relative="1" as="geometry">
                        <mxPoint x="375" y="1120" as="sourcePoint"/>
                    </mxGeometry>
                </mxCell>
                <mxCell id="236" style="edgeStyle=none;html=1;" parent="1" source="234" target="235" edge="1">
                    <mxGeometry relative="1" as="geometry"/>
                </mxCell>
                <mxCell id="234" value="float x, y, p, fact, sum;" style="rounded=0;whiteSpace=wrap;html=1;" parent="1" vertex="1">
                    <mxGeometry x="315" y="200" width="120" height="50" as="geometry"/>
                </mxCell>
                <mxCell id="248" value="" style="edgeStyle=none;html=1;" edge="1" parent="1" source="235" target="246">
                    <mxGeometry relative="1" as="geometry"/>
                </mxCell>
                <mxCell id="235" value="cin &amp;gt;&amp;gt; n &amp;gt;&amp;gt; x;" style="shape=parallelogram;perimeter=parallelogramPerimeter;whiteSpace=wrap;html=1;fixedSize=1;" parent="1" vertex="1">
                    <mxGeometry x="252.5" y="280" width="245" height="40" as="geometry"/>
                </mxCell>
                <mxCell id="250" value="" style="edgeStyle=none;html=1;" edge="1" parent="1" source="246" target="249">
                    <mxGeometry relative="1" as="geometry"/>
                </mxCell>
                <mxCell id="246" value="sum = 1 + x;" style="rounded=0;whiteSpace=wrap;html=1;" vertex="1" parent="1">
                    <mxGeometry x="315" y="360" width="120" height="50" as="geometry"/>
                </mxCell>
                <mxCell id="252" value="" style="edgeStyle=none;html=1;" edge="1" parent="1" source="249" target="251">
                    <mxGeometry relative="1" as="geometry"/>
                </mxCell>
                <mxCell id="249" value="fact = 1;" style="rounded=0;whiteSpace=wrap;html=1;" vertex="1" parent="1">
                    <mxGeometry x="315" y="430" width="120" height="50" as="geometry"/>
                </mxCell>
                <mxCell id="254" value="1" style="edgeStyle=none;html=1;" edge="1" parent="1" source="251" target="253">
                    <mxGeometry relative="1" as="geometry"/>
                </mxCell>
                <mxCell id="268" value="0" style="edgeStyle=orthogonalEdgeStyle;rounded=0;html=1;entryX=0.5;entryY=0;entryDx=0;entryDy=0;" edge="1" parent="1" source="251" target="265">
                    <mxGeometry x="-0.9394" relative="1" as="geometry">
                        <Array as="points">
                            <mxPoint x="560" y="525"/>
                            <mxPoint x="560" y="1050"/>
                            <mxPoint x="375" y="1050"/>
                        </Array>
                        <mxPoint as="offset"/>
                    </mxGeometry>
                </mxCell>
                <mxCell id="251" value="for (int i = 2; i &lt;= n; i++)" style="shape=hexagon;perimeter=hexagonPerimeter2;whiteSpace=wrap;html=1;fixedSize=1;" vertex="1" parent="1">
                    <mxGeometry x="275" y="500" width="200" height="50" as="geometry"/>
                </mxCell>
                <mxCell id="256" value="" style="edgeStyle=none;html=1;" edge="1" parent="1" source="253" target="255">
                    <mxGeometry relative="1" as="geometry"/>
                </mxCell>
                <mxCell id="253" value="p = 1;" style="rounded=0;whiteSpace=wrap;html=1;" vertex="1" parent="1">
                    <mxGeometry x="315" y="590" width="120" height="50" as="geometry"/>
                </mxCell>
                <mxCell id="258" value="1" style="edgeStyle=none;html=1;" edge="1" parent="1" source="255" target="257">
                    <mxGeometry relative="1" as="geometry"/>
                </mxCell>
                <mxCell id="261" value="0" style="edgeStyle=orthogonalEdgeStyle;rounded=0;html=1;entryX=0.5;entryY=0;entryDx=0;entryDy=0;" edge="1" parent="1" source="255" target="263">
                    <mxGeometry x="-0.863" relative="1" as="geometry">
                        <mxPoint x="500" y="770" as="targetPoint"/>
                        <Array as="points">
                            <mxPoint x="520" y="695"/>
                            <mxPoint x="520" y="850"/>
                            <mxPoint x="375" y="850"/>
                        </Array>
                        <mxPoint as="offset"/>
                    </mxGeometry>
                </mxCell>
                <mxCell id="255" value="for (int j = 1; j &lt;= i; j++)" style="shape=hexagon;perimeter=hexagonPerimeter2;whiteSpace=wrap;html=1;fixedSize=1;" vertex="1" parent="1">
                    <mxGeometry x="275" y="670" width="200" height="50" as="geometry"/>
                </mxCell>
                <mxCell id="260" style="edgeStyle=orthogonalEdgeStyle;html=1;rounded=0;entryX=0;entryY=0.5;entryDx=0;entryDy=0;" edge="1" parent="1" source="257" target="255">
                    <mxGeometry relative="1" as="geometry">
                        <mxPoint x="375" y="880" as="targetPoint"/>
                        <Array as="points">
                            <mxPoint x="375" y="840"/>
                            <mxPoint x="240" y="840"/>
                            <mxPoint x="240" y="695"/>
                        </Array>
                    </mxGeometry>
                </mxCell>
                <mxCell id="257" value="p *= x;" style="rounded=0;whiteSpace=wrap;html=1;" vertex="1" parent="1">
                    <mxGeometry x="315" y="750" width="120" height="50" as="geometry"/>
                </mxCell>
                <mxCell id="266" style="edgeStyle=orthogonalEdgeStyle;rounded=0;html=1;entryX=0;entryY=0.5;entryDx=0;entryDy=0;" edge="1" parent="1" source="262" target="251">
                    <mxGeometry relative="1" as="geometry">
                        <Array as="points">
                            <mxPoint x="375" y="1030"/>
                            <mxPoint x="200" y="1030"/>
                            <mxPoint x="200" y="525"/>
                        </Array>
                    </mxGeometry>
                </mxCell>
                <mxCell id="262" value="sum += p / fact;" style="rounded=0;whiteSpace=wrap;html=1;" vertex="1" parent="1">
                    <mxGeometry x="315" y="950" width="120" height="50" as="geometry"/>
                </mxCell>
                <mxCell id="264" value="" style="edgeStyle=orthogonalEdgeStyle;rounded=0;html=1;" edge="1" parent="1" source="263" target="262">
                    <mxGeometry relative="1" as="geometry"/>
                </mxCell>
                <mxCell id="263" value="fact *= i;" style="rounded=0;whiteSpace=wrap;html=1;" vertex="1" parent="1">
                    <mxGeometry x="315" y="870" width="120" height="50" as="geometry"/>
                </mxCell>
                <mxCell id="265" value="cout &lt;&lt; sum &lt;&lt; endl;" style="shape=parallelogram;perimeter=parallelogramPerimeter;whiteSpace=wrap;html=1;fixedSize=1;" vertex="1" parent="1">
                    <mxGeometry x="252.5" y="1080" width="245" height="40" as="geometry"/>
                </mxCell>
            </root>
        </mxGraphModel>
    </diagram>
</mxfile>